<?xml version="1.0" encoding="UTF-8" standalone="yes"?>
<!-- Created with sK1/UniConvertor (http://sk1project.org/) -->
<svg xmlns="http://www.w3.org/2000/svg" xmlns:xlink="http://www.w3.org/1999/xlink"
  width="595.276pt" height="841.89pt" viewBox="0 0 595.276 841.89"
  fill-rule="evenodd">
<g>
<path style="stroke:#2c2c2b; stroke-width:0; fill:none" d="M 549.42 -210.685C 562.76 -210.685 573.574 -199.871 573.574 -186.531C 573.574 -173.191 562.76 -162.377 549.42 -162.377C 536.08 -162.377 525.266 -173.191 525.266 -186.531C 525.266 -199.871 536.08 -210.685 549.42 -210.685L 549.42 -210.685z"/>
<path style="stroke:#2c2c2b; stroke-width:0; fill:none" d="M 495.533 -210.204L 487.78 -210.204C 487.425 -210.204 487.129 -209.907 487.129 -209.671C 487.129 -209.671 487.129 -200.379 487.129 -191.088C 490.147 -191.088 493.166 -191.088 496.184 -191.088C 496.184 -196.325 496.184 -201.563 496.184 -201.563C 506.482 -202.096 514.116 -197.775 514.116 -186.531C 514.116 -171.913 501.925 -171.321 496.184 -171.558C 496.184 -171.558 496.184 -176.766 496.184 -181.974C 493.166 -181.974 490.147 -181.974 487.129 -181.974C 487.129 -172.682 487.129 -163.391 487.129 -163.391C 487.129 -163.154 487.425 -162.858 487.78 -162.858L 495.533 -162.858C 507.31 -162.858 523.23 -166.291 523.23 -186.531C 523.23 -207.54 507.073 -210.204 495.533 -210.204z"/>
<path style="stroke:#2c2c2b; stroke-width:0; fill:none" d="M 549.42 -201.155C 541.344 -201.155 534.796 -194.607 534.796 -186.531C 534.796 -178.454 541.344 -171.907 549.42 -171.907C 557.497 -171.907 564.044 -178.454 564.044 -186.531C 564.044 -194.607 557.497 -201.155 549.42 -201.155z"/>
<path style="stroke:#2c2c2b; stroke-width:0; fill:none" d="M 549.42 -191.131C 551.961 -191.131 554.021 -189.072 554.021 -186.531C 554.021 -183.99 551.961 -181.93 549.42 -181.93C 546.879 -181.93 544.82 -183.99 544.82 -186.531C 544.82 -189.072 546.879 -191.131 549.42 -191.131z"/>
<path style="stroke:#2c2c2b; stroke-width:0; fill:none" d="M 597.403 -189.135C 594.03 -190.733 590.715 -190.733 590.419 -190.733C 587.401 -190.733 584.501 -192.508 584.501 -195.941C 584.501 -199.728 587.165 -201.682 590.419 -201.682C 593.497 -201.682 596.101 -200.084 596.219 -196.71C 596.219 -196.533 596.515 -196.237 596.87 -196.237L 604.268 -196.237C 604.682 -196.237 604.978 -196.533 604.919 -196.71C 604.801 -204.759 598.528 -210.204 590.419 -210.204C 582.844 -210.204 575.683 -204.818 575.683 -195.941C 575.683 -190.437 578.465 -186.235 583.377 -183.986C 586.809 -182.388 590.005 -182.388 590.419 -182.388C 593.083 -182.27 596.338 -180.139 596.338 -176.647C 596.338 -173.511 593.556 -171.38 590.419 -171.38C 590.419 -171.38 590.419 -171.38 590.36 -171.38L 590.36 -162.858C 590.419 -162.858 590.419 -162.858 590.419 -162.858C 597.995 -162.858 605.097 -167.77 605.097 -176.647C 605.097 -182.21 602.374 -186.827 597.403 -189.135z"/>
<path style="stroke:#2c2c2b; stroke-width:0; fill:none" d="M 491.185 -149.135C 490.357 -152.137 489.529 -155.139 489.529 -155.139C 489.508 -155.215 489.468 -155.275 489.41 -155.32C 489.351 -155.365 489.284 -155.387 489.208 -155.387C 489.132 -155.387 489.064 -155.365 489.006 -155.32C 488.947 -155.275 488.907 -155.215 488.887 -155.139L 487.23 -149.135C 487.203 -149.045 487.211 -148.962 487.257 -148.886C 487.301 -148.811 487.368 -148.759 487.458 -148.731C 487.555 -148.703 487.641 -148.712 487.717 -148.757C 487.793 -148.802 487.845 -148.869 487.872 -148.959C 487.9 -149.062 487.931 -149.176 487.965 -149.3C 488 -149.411 488.034 -149.539 488.069 -149.684C 488.104 -149.828 488.148 -149.99 488.204 -150.17L 490.212 -150.17C 490.26 -149.99 490.303 -149.828 490.341 -149.684C 490.379 -149.539 490.415 -149.411 490.45 -149.3C 490.485 -149.176 490.516 -149.062 490.543 -148.959C 490.571 -148.869 490.623 -148.802 490.698 -148.757C 490.775 -148.712 490.857 -148.703 490.947 -148.731C 491.044 -148.759 491.115 -148.811 491.159 -148.886C 491.204 -148.962 491.213 -149.045 491.185 -149.135L 491.185 -149.135z"/>
<path style="stroke:#2c2c2b; stroke-width:0; fill:none" d="M 490.026 -150.833C 489.208 -150.833 488.39 -150.833 488.39 -150.833C 488.459 -151.088 488.531 -151.352 488.607 -151.625C 488.683 -151.897 488.757 -152.165 488.83 -152.427C 488.902 -152.689 488.97 -152.939 489.032 -153.177C 489.094 -153.416 489.153 -153.628 489.208 -153.814C 489.256 -153.628 489.313 -153.416 489.379 -153.177C 489.444 -152.939 489.513 -152.689 489.586 -152.427C 489.658 -152.165 489.732 -151.897 489.808 -151.625C 489.884 -151.352 489.957 -151.088 490.026 -150.833L 490.026 -150.833z"/>
<path style="stroke:#2c2c2b; stroke-width:0; fill:none" d="M 502.675 -153.193C 502.675 -153.483 502.675 -153.773 502.675 -153.773C 502.675 -153.987 502.633 -154.19 502.551 -154.383C 502.468 -154.577 502.356 -154.744 502.214 -154.886C 502.073 -155.027 501.905 -155.139 501.712 -155.222C 501.519 -155.305 501.315 -155.346 501.102 -155.346L 499.859 -155.346C 499.77 -155.346 499.692 -155.315 499.626 -155.253C 499.561 -155.191 499.528 -155.112 499.528 -155.015L 499.528 -149.052C 499.528 -148.956 499.561 -148.876 499.626 -148.814C 499.692 -148.752 499.77 -148.721 499.859 -148.721C 499.955 -148.721 500.035 -148.752 500.097 -148.814C 500.16 -148.876 500.19 -148.956 500.19 -149.052C 500.19 -149.052 500.19 -150.336 500.19 -151.62C 500.473 -151.62 500.756 -151.62 501.039 -151.62C 501.536 -150.279 502.033 -148.938 502.033 -148.938C 502.068 -148.849 502.126 -148.785 502.209 -148.747C 502.292 -148.709 502.375 -148.707 502.458 -148.742C 502.547 -148.776 502.611 -148.835 502.649 -148.918C 502.687 -149.001 502.689 -149.083 502.654 -149.166L 501.702 -151.734C 501.992 -151.851 502.226 -152.04 502.406 -152.303C 502.585 -152.565 502.675 -152.862 502.675 -153.193L 502.675 -153.193z"/>
<path style="stroke:#2c2c2b; stroke-width:0; fill:none" d="M 501.101 -152.282C 500.798 -152.282 500.494 -152.282 500.19 -152.282C 500.19 -153.082 500.19 -153.883 500.19 -154.684C 500.646 -154.684 501.101 -154.684 501.101 -154.684C 501.357 -154.684 501.572 -154.594 501.748 -154.414C 501.924 -154.235 502.012 -154.021 502.012 -153.773L 502.012 -153.193C 502.012 -152.938 501.924 -152.722 501.748 -152.546C 501.572 -152.37 501.357 -152.282 501.101 -152.282L 501.101 -152.282z"/>
<path style="stroke:#2c2c2b; stroke-width:0; fill:none" d="M 511.09 -153.814C 511.09 -152.054 511.09 -150.294 511.09 -150.294C 511.09 -150.073 511.131 -149.868 511.214 -149.678C 511.297 -149.489 511.409 -149.323 511.55 -149.181C 511.692 -149.04 511.858 -148.928 512.048 -148.845C 512.238 -148.762 512.443 -148.721 512.664 -148.721C 512.746 -148.721 512.829 -148.727 512.912 -148.741C 512.995 -148.755 513.074 -148.772 513.15 -148.793L 513.616 -147.975C 513.664 -147.9 513.733 -147.849 513.823 -147.825C 513.913 -147.801 513.996 -147.81 514.071 -147.851C 514.147 -147.9 514.199 -147.968 514.227 -148.058C 514.254 -148.148 514.244 -148.231 514.196 -148.307L 513.719 -149.125C 513.878 -149.269 514.004 -149.442 514.097 -149.642C 514.191 -149.842 514.237 -150.06 514.237 -150.294L 514.237 -153.814C 514.237 -154.028 514.196 -154.232 514.113 -154.425C 514.03 -154.618 513.918 -154.785 513.776 -154.927C 513.635 -155.068 513.468 -155.181 513.274 -155.263C 513.081 -155.346 512.877 -155.387 512.664 -155.387C 512.443 -155.387 512.238 -155.346 512.048 -155.263C 511.858 -155.181 511.692 -155.068 511.55 -154.927C 511.409 -154.785 511.297 -154.618 511.214 -154.425C 511.131 -154.232 511.09 -154.028 511.09 -153.814L 511.09 -153.814z"/>
<path style="stroke:#2c2c2b; stroke-width:0; fill:none" d="M 512.664 -154.725C 512.919 -154.725 513.135 -154.635 513.311 -154.456C 513.487 -154.276 513.575 -154.063 513.575 -153.814L 513.575 -150.294C 513.575 -150.039 513.487 -149.823 513.311 -149.647C 513.135 -149.471 512.919 -149.383 512.664 -149.383C 512.415 -149.383 512.201 -149.471 512.022 -149.647C 511.843 -149.823 511.753 -150.039 511.753 -150.294L 511.753 -153.814C 511.753 -153.938 511.777 -154.055 511.825 -154.166C 511.874 -154.276 511.939 -154.373 512.022 -154.456C 512.105 -154.538 512.201 -154.604 512.312 -154.653C 512.422 -154.701 512.54 -154.725 512.664 -154.725L 512.664 -154.725z"/>
<path style="stroke:#2c2c2b; stroke-width:0; fill:none" d="M 523.48 -150.294C 523.48 -150.294 523.48 -150.294 523.48 -150.294C 523.48 -152.675 523.48 -155.056 523.48 -155.056C 523.48 -155.153 523.448 -155.232 523.382 -155.294C 523.317 -155.357 523.239 -155.387 523.149 -155.387C 523.053 -155.387 522.973 -155.357 522.911 -155.294C 522.849 -155.232 522.818 -155.153 522.818 -155.056L 522.818 -150.294C 522.818 -150.073 522.859 -149.868 522.942 -149.678C 523.025 -149.489 523.137 -149.323 523.279 -149.181C 523.42 -149.04 523.586 -148.928 523.776 -148.845C 523.965 -148.762 524.171 -148.721 524.392 -148.721C 524.605 -148.721 524.807 -148.762 524.997 -148.845C 525.187 -148.928 525.354 -149.04 525.5 -149.181C 525.644 -149.323 525.758 -149.489 525.841 -149.678C 525.924 -149.868 525.965 -150.073 525.965 -150.294L 525.965 -155.056C 525.965 -155.153 525.932 -155.232 525.867 -155.294C 525.801 -155.357 525.724 -155.387 525.634 -155.387C 525.537 -155.387 525.458 -155.357 525.396 -155.294C 525.334 -155.232 525.302 -155.153 525.302 -155.056L 525.302 -150.294C 525.302 -150.039 525.213 -149.823 525.033 -149.647C 524.854 -149.471 524.64 -149.383 524.392 -149.383C 524.136 -149.383 523.921 -149.471 523.745 -149.647C 523.569 -149.823 523.48 -150.039 523.48 -150.294L 523.48 -150.294z"/>
<path style="stroke:#2c2c2b; stroke-width:0; fill:none" d="M 535.002 -148.721C 535.098 -148.721 535.178 -148.752 535.24 -148.814C 535.302 -148.876 535.333 -148.955 535.333 -149.052L 535.333 -155.056C 535.333 -155.153 535.302 -155.232 535.24 -155.294C 535.178 -155.357 535.098 -155.387 535.002 -155.387C 534.912 -155.387 534.834 -155.357 534.769 -155.294C 534.703 -155.232 534.67 -155.153 534.67 -155.056L 534.67 -149.052C 534.67 -148.955 534.703 -148.876 534.769 -148.814C 534.834 -148.752 534.912 -148.721 535.002 -148.721L 535.002 -148.721z"/>
<path style="stroke:#2c2c2b; stroke-width:0; fill:none" d="M 546.73 -155.346C 545.384 -155.346 544.038 -155.346 544.038 -155.346C 543.949 -155.346 543.871 -155.315 543.805 -155.253C 543.74 -155.191 543.707 -155.112 543.707 -155.015C 543.707 -154.919 543.74 -154.839 543.805 -154.777C 543.871 -154.715 543.949 -154.684 544.038 -154.684C 544.038 -154.684 544.545 -154.684 545.053 -154.684C 545.053 -151.868 545.053 -149.052 545.053 -149.052C 545.053 -148.956 545.085 -148.876 545.151 -148.814C 545.217 -148.752 545.294 -148.721 545.384 -148.721C 545.481 -148.721 545.56 -148.752 545.622 -148.814C 545.684 -148.876 545.715 -148.956 545.715 -149.052C 545.715 -149.052 545.715 -151.868 545.715 -154.684C 546.222 -154.684 546.73 -154.684 546.73 -154.684C 546.826 -154.684 546.906 -154.715 546.968 -154.777C 547.03 -154.839 547.061 -154.919 547.061 -155.015C 547.061 -155.112 547.03 -155.191 546.968 -155.253C 546.906 -155.315 546.826 -155.346 546.73 -155.346L 546.73 -155.346z"/>
<path style="stroke:#2c2c2b; stroke-width:0; fill:none" d="M 555.435 -155.015C 555.435 -152.054 555.435 -149.094 555.435 -149.094C 555.435 -148.997 555.466 -148.918 555.528 -148.855C 555.59 -148.793 555.669 -148.763 555.766 -148.763L 557.837 -148.763C 557.933 -148.763 558.013 -148.793 558.075 -148.855C 558.137 -148.918 558.168 -148.997 558.168 -149.094C 558.168 -149.19 558.137 -149.269 558.075 -149.332C 558.013 -149.394 557.933 -149.425 557.837 -149.425C 557.837 -149.425 556.967 -149.425 556.097 -149.425C 556.097 -150.226 556.097 -151.026 556.097 -151.827C 556.863 -151.827 557.63 -151.827 557.63 -151.827C 557.726 -151.827 557.805 -151.858 557.868 -151.92C 557.93 -151.982 557.961 -152.061 557.961 -152.158C 557.961 -152.255 557.93 -152.334 557.868 -152.396C 557.805 -152.458 557.726 -152.489 557.63 -152.489C 557.63 -152.489 556.863 -152.489 556.097 -152.489C 556.097 -153.221 556.097 -153.952 556.097 -154.684C 556.967 -154.684 557.837 -154.684 557.837 -154.684C 557.933 -154.684 558.013 -154.715 558.075 -154.777C 558.137 -154.839 558.168 -154.919 558.168 -155.015C 558.168 -155.112 558.137 -155.191 558.075 -155.253C 558.013 -155.315 557.933 -155.346 557.837 -155.346L 555.766 -155.346C 555.669 -155.346 555.59 -155.315 555.528 -155.253C 555.466 -155.191 555.435 -155.112 555.435 -155.015L 555.435 -155.015z"/>
<path style="stroke:#2c2c2b; stroke-width:0; fill:none" d="M 569.233 -155.346C 567.887 -155.346 566.542 -155.346 566.542 -155.346C 566.452 -155.346 566.374 -155.315 566.309 -155.253C 566.243 -155.191 566.21 -155.112 566.21 -155.015C 566.21 -154.919 566.243 -154.839 566.309 -154.777C 566.374 -154.715 566.452 -154.684 566.542 -154.684C 566.542 -154.684 567.049 -154.684 567.556 -154.684C 567.556 -151.868 567.556 -149.052 567.556 -149.052C 567.556 -148.956 567.589 -148.876 567.654 -148.814C 567.72 -148.752 567.798 -148.721 567.888 -148.721C 567.984 -148.721 568.063 -148.752 568.126 -148.814C 568.187 -148.876 568.219 -148.956 568.219 -149.052C 568.219 -149.052 568.219 -151.868 568.219 -154.684C 568.726 -154.684 569.233 -154.684 569.233 -154.684C 569.33 -154.684 569.409 -154.715 569.472 -154.777C 569.533 -154.839 569.565 -154.919 569.565 -155.015C 569.565 -155.112 569.533 -155.191 569.472 -155.253C 569.409 -155.315 569.33 -155.346 569.233 -155.346L 569.233 -155.346z"/>
<path style="stroke:#2c2c2b; stroke-width:0; fill:none" d="M 578.518 -150.294L 578.518 -150.294C 578.518 -152.675 578.518 -155.056 578.518 -155.056C 578.518 -155.153 578.485 -155.232 578.42 -155.294C 578.354 -155.357 578.277 -155.387 578.187 -155.387C 578.09 -155.387 578.011 -155.357 577.949 -155.294C 577.887 -155.232 577.856 -155.153 577.856 -155.056L 577.856 -150.294C 577.856 -150.073 577.897 -149.868 577.98 -149.678C 578.063 -149.489 578.175 -149.323 578.316 -149.181C 578.458 -149.04 578.623 -148.928 578.813 -148.845C 579.003 -148.762 579.209 -148.721 579.429 -148.721C 579.643 -148.721 579.845 -148.762 580.035 -148.845C 580.225 -148.928 580.392 -149.04 580.537 -149.181C 580.682 -149.323 580.796 -149.489 580.878 -149.678C 580.961 -149.868 581.003 -150.073 581.003 -150.294L 581.003 -155.056C 581.003 -155.153 580.97 -155.232 580.905 -155.294C 580.838 -155.357 580.761 -155.387 580.672 -155.387C 580.575 -155.387 580.495 -155.357 580.433 -155.294C 580.371 -155.232 580.34 -155.153 580.34 -155.056L 580.34 -150.294C 580.34 -150.039 580.25 -149.823 580.071 -149.647C 579.891 -149.471 579.678 -149.383 579.429 -149.383C 579.174 -149.383 578.958 -149.471 578.782 -149.647C 578.606 -149.823 578.518 -150.039 578.518 -150.294L 578.518 -150.294z"/>
<path style="stroke:#2c2c2b; stroke-width:0; fill:none" d="M 592.855 -153.193C 592.855 -153.483 592.855 -153.773 592.855 -153.773C 592.855 -153.987 592.813 -154.19 592.731 -154.383C 592.648 -154.577 592.536 -154.744 592.394 -154.886C 592.253 -155.027 592.086 -155.139 591.892 -155.222C 591.699 -155.305 591.495 -155.346 591.282 -155.346L 590.039 -155.346C 589.949 -155.346 589.872 -155.315 589.806 -155.253C 589.74 -155.191 589.708 -155.112 589.708 -155.015L 589.708 -149.052C 589.708 -148.956 589.74 -148.876 589.806 -148.814C 589.872 -148.752 589.949 -148.721 590.039 -148.721C 590.136 -148.721 590.215 -148.752 590.277 -148.814C 590.339 -148.876 590.37 -148.956 590.37 -149.052C 590.37 -149.052 590.37 -150.336 590.37 -151.62C 590.653 -151.62 590.936 -151.62 591.219 -151.62C 591.716 -150.279 592.213 -148.938 592.213 -148.938C 592.248 -148.849 592.306 -148.785 592.389 -148.747C 592.472 -148.709 592.555 -148.707 592.637 -148.742C 592.727 -148.776 592.791 -148.835 592.829 -148.918C 592.867 -149.001 592.869 -149.083 592.834 -149.166L 591.882 -151.734C 592.171 -151.851 592.406 -152.04 592.586 -152.303C 592.765 -152.565 592.855 -152.862 592.855 -153.193L 592.855 -153.193z"/>
<path style="stroke:#2c2c2b; stroke-width:0; fill:none" d="M 591.282 -152.282C 590.978 -152.282 590.674 -152.282 590.37 -152.282C 590.37 -153.082 590.37 -153.883 590.37 -154.684C 590.826 -154.684 591.282 -154.684 591.282 -154.684C 591.537 -154.684 591.752 -154.594 591.928 -154.414C 592.105 -154.235 592.192 -154.021 592.192 -153.773L 592.192 -153.193C 592.192 -152.938 592.105 -152.722 591.928 -152.546C 591.752 -152.37 591.537 -152.282 591.282 -152.282L 591.282 -152.282z"/>
<path style="stroke:#2c2c2b; stroke-width:0; fill:none" d="M 604.904 -149.135C 604.076 -152.137 603.247 -155.139 603.247 -155.139C 603.227 -155.215 603.187 -155.275 603.129 -155.32C 603.07 -155.365 603.003 -155.387 602.927 -155.387C 602.851 -155.387 602.783 -155.365 602.725 -155.32C 602.666 -155.275 602.626 -155.215 602.606 -155.139L 600.949 -149.135C 600.921 -149.045 600.93 -148.962 600.975 -148.886C 601.02 -148.811 601.087 -148.759 601.177 -148.731C 601.274 -148.703 601.36 -148.712 601.436 -148.757C 601.512 -148.802 601.564 -148.869 601.591 -148.959C 601.619 -149.062 601.65 -149.176 601.684 -149.3C 601.719 -149.411 601.753 -149.539 601.788 -149.684C 601.822 -149.828 601.867 -149.99 601.922 -150.17L 603.931 -150.17C 603.979 -149.99 604.022 -149.828 604.06 -149.684C 604.098 -149.539 604.134 -149.411 604.169 -149.3C 604.203 -149.176 604.234 -149.062 604.262 -148.959C 604.29 -148.869 604.341 -148.802 604.417 -148.757C 604.493 -148.712 604.576 -148.703 604.666 -148.731C 604.762 -148.759 604.833 -148.811 604.878 -148.886C 604.923 -148.962 604.931 -149.045 604.904 -149.135L 604.904 -149.135z"/>
<path style="stroke:#2c2c2b; stroke-width:0; fill:none" d="M 603.745 -150.833L 602.109 -150.833C 602.178 -151.088 602.25 -151.352 602.326 -151.625C 602.402 -151.897 602.476 -152.165 602.549 -152.427C 602.621 -152.689 602.689 -152.939 602.751 -153.177C 602.813 -153.416 602.872 -153.628 602.927 -153.814C 602.975 -153.628 603.032 -153.416 603.097 -153.177C 603.163 -152.939 603.232 -152.689 603.305 -152.427C 603.377 -152.165 603.451 -151.897 603.527 -151.625C 603.603 -151.352 603.676 -151.088 603.745 -150.833z"/>
</g>
</svg>